/* XPM */
/* Copyright 2004 by the Free Software Foundation. See COPYING */
static char * empty1_xpm[] = {
"36 36 2 1",
" 	c #E79DB2CA4924",
".	c #000000000000",
"                                    ",
"                                    ",
"                                    ",
"                                    ",
"                                    ",
"                                    ",
"                                    ",
"                                    ",
"                                    ",
"                                    ",
"                                    ",
"                                    ",
"                                    ",
"                                    ",
"                                    ",
"                                    ",
"                                    ",
"....................................",
"....................................",
"                 ..                 ",
"                 ..                 ",
"                 ..                 ",
"                 ..                 ",
"                 ..                 ",
"                 ..                 ",
"                 ..                 ",
"                 ..                 ",
"                 ..                 ",
"                 ..                 ",
"                 ..                 ",
"                 ..                 ",
"                 ..                 ",
"                 ..                 ",
"                 ..                 ",
"                 ..                 ",
"                 ..                 "};
