/* XPM */
/* Copyright 2004 by the Free Software Foundation. See COPYING */
static char * hoshi_xpm[] = {
"36 36 4 1",
" 	c #E79DB2CA4924",
".	c #000000000000",
"X	c #618565956185",
"o	c #9E799A699E79",
"                 ..                 ",
"                 ..                 ",
"                 ..                 ",
"                 ..                 ",
"                 ..                 ",
"                 ..                 ",
"                 ..                 ",
"                 ..                 ",
"                 ..                 ",
"                 ..                 ",
"                 ..                 ",
"                 ..                 ",
"                 ..                 ",
"                 ..                 ",
"                 ..                 ",
"                ....                ",
"               ......               ",
"....................................",
"....................................",
"               ......               ",
"                ....                ",
"                 ..                 ",
"                 ..                 ",
"                 ..                 ",
"                 ..                 ",
"                 ..                 ",
"                 ..                 ",
"                 ..                 ",
"                 ..                 ",
"                 ..                 ",
"                 ..                 ",
"                 ..                 ",
"                 ..                 ",
"                 ..                 ",
"                 ..                 ",
"                 ..                 "};
