/* XPM */
/* Copyright 2004 by the Free Software Foundation. See COPYING */
static char * wpmoku5_xpm[] = {
"36 36 11 1",
" 	c #E79DB2CA4924",
".	c #000000000000",
"X	c #CF3CCF3CCF3C",
"o	c #C71BC71BC71B",
"O	c #D75CD75CD75C",
"+	c #DF7DDF7DDF7D",
"@	c #E79DE79DE79D",
"#	c #EFBEEFBEEFBE",
"$	c #BEFBBEFBBEFB",
"%	c #B6DAB6DAB6DA",
"&	c #AEBAAEBAAEBA",
"                 ..                 ",
"                 ..                 ",
"              XXoooXOX              ",
"           XoXXXXXXOOOOXO           ",
"         XoXXXXXXXOOOOOOOXX         ",
"        XooXXXXXXOOO++++OOXX        ",
"       XooooXXXXXOO+++++++OOX       ",
"      XoooooXXXXOO+++@@@@++OOX      ",
"     XoooooooXXXOO++@@@@@@+++OX     ",
"    XooooooooXXXOO+@@####@@+++OX    ",
"    Xooo$ooooXXXOO+@@#####@@++OO    ",
"   Xooo$$ooooXXXOO+@@#####@@++OOX   ",
"   oooo$$$ooooXXOO+@@######@++OOO   ",
"   o$$$$$$ooooXXOO++@#####@@++OOO   ",
"  %$$$$$$$$ooooXXOO+@@@##@@@++OOXo  ",
"  %%%%%$$$$$oooXX..++@@@@@@++OOOXo  ",
"  %%%%%$$$$$oooo....+++@@++++OOXXo  ",
"..&%%%%%$$$$$oo......O+++++OOOXXXo..",
"..&&&&%%%$$$$oo......OOOOOOOOOXXoo..",
"  &&&&%%%%$$$$oo....XXXOOOOOXXXXoo  ",
"  &&&&&%%%$$$$$oo..XXXXXXXXXXXXXoo  ",
"  &&&&&&%%%$$$$$oooooXXXXXXXXXXooo  ",
"   &&&&&&%%%$$$$$oooooooXXXXXXXXo   ",
"   &&&&&&%%%%$$$$$oooooooooooXXXX   ",
"   &&&&&&&%%%%$$$$$$oooooooooXXXX   ",
"    &&&&&&&%%%%%$$$$$ooooooooXXX    ",
"    %&&&&&&%%%%%%$$$$$$$$$oooXXX    ",
"     &&&&&&&&%%%%%$$$$$$$$ooXXX     ",
"      &&&&&&&&%%%%%%%%%$$$ooXX      ",
"       &&&&&&&&&&%%%%%%%$$ooX       ",
"        &&&&&&&&&&&%%%%%$$oo        ",
"         &&&&&&&&&&&%%%%$$o         ",
"           &&&&&&&&&&%%$%           ",
"              &&&&&&%%              ",
"                 ..                 ",
"                 ..                 "};
