/* XPM */
/* Copyright 2004 by the Free Software Foundation. See COPYING */
static char * bmoku1_xpm[] = {
"30 30 6 1",
" 	c #E79DB2CA4924",
".	c #000000000000",
"X	c #618561856185",
"o	c #9E799E799E79",
"O	c #CF3CCF3CCF3C",
"+	c #FFFFFFFFFFFF",
"              ..              ",
"           ........           ",
"         ............         ",
"       ................       ",
"      ..........XXX.....      ",
"     ..........XXXXXX....     ",
"    ..........XXooooXX....    ",
"   ...........XooOOOooX....   ",
"   ...........XooOOOoXX....   ",
"  ............XoooOoooX.....  ",
"  .............XXoooXX......  ",
" ...............XXXXX........ ",
" .............OO............. ",
" ............O++O............ ",
" ...........O++++O............",
" ...........O++++O............",
" ............O++O............ ",
" .............OO............. ",
"  ........................... ",
"  ..........................  ",
"  ..........................  ",
"   ........................   ",
"   ........................   ",
"    ......................    ",
"     ....................     ",
"      ..................      ",
"       ................       ",
"         ............         ",
"           ........           ",
"              ..              "};

