/* XPM */
static char * empty4_xpm[] = {
"36 36 2 1",
" 	c #E79DB2CA4924",
".	c #000000000000",
"                 ..                 ",
"                 ..                 ",
"                 ..                 ",
"                 ..                 ",
"                 ..                 ",
"                 ..                 ",
"                 ..                 ",
"                 ..                 ",
"                 ..                 ",
"                 ..                 ",
"                 ..                 ",
"                 ..                 ",
"                 ..                 ",
"                 ..                 ",
"                 ..                 ",
"                 ..                 ",
"                 ..                 ",
"                 ...................",
"                 ...................",
"                 ..                 ",
"                 ..                 ",
"                 ..                 ",
"                 ..                 ",
"                 ..                 ",
"                 ..                 ",
"                 ..                 ",
"                 ..                 ",
"                 ..                 ",
"                 ..                 ",
"                 ..                 ",
"                 ..                 ",
"                 ..                 ",
"                 ..                 ",
"                 ..                 ",
"                 ..                 ",
"                 ..                 "};
