/* XPM */
/* Copyright 2004 by the Free Software Foundation. See COPYING */
static char * wmoku5_xpm[] = {
"30 30 11 1",
" 	c #E79DB2CA4924",
".	c #000000000000",
"X	c #CF3CCF3CCF3C",
"o	c #C71BC71BC71B",
"O	c #D75CD75CD75C",
"+	c #DF7DDF7DDF7D",
"@	c #E79DE79DE79D",
"#	c #EFBEEFBEEFBE",
"$	c #BEFBBEFBBEFB",
"%	c #B6DAB6DAB6DA",
"&	c #AEBAAEBAAEBA",
"                              ",
"           XXoooXOX           ",
"         oXXXXXXOOOOX         ",
"       XoXXXXXXOOOOOOXX       ",
"      XooXXXXXOO++++++OX      ",
"     XoooXXXXOO+++@@@++OX     ",
"    ooooooXXXOO++@@@@@+++O    ",
"   XooooooXXXOO+@@###@@+++X   ",
"   Xoo$oooXXXOO+@@####@@++O   ",
"  ooo$$$oooXXOO+@@#####@++OO  ",
"  o$$$$$oooXXOO++@####@@++OO  ",
" %$$$$$$$oooXXOO+@@@#@@@++OXo ",
" %%%%$$$$oooXX&&++@@@@@++OOXo ",
" %%%%$$$$oooo&..&+++@@+++OXXo ",
" &%%%%$$$$oo&....&O++++OOOXXo.",
" &&&%%%$$$oo&....&OOOOOOOOXoo.",
" &&&%%%%$$$oo&..&XXXOOOOXXXoo ",
" &&&&%%%$$$$oo&&XXXXXXXXXXXoo ",
" &&&&&%%%$$$$oooooXXXXXXXXooo ",
"  &&&&&%%$$$$$oooooooXXXXXXo  ",
"  &&&&&%%%$$$$$ooooooooooXXX  ",
"   &&&&&&%%%%$$$$$oooooooXX   ",
"   %&&&&&%%%%%$$$$$$$$oooXX   ",
"    &&&&&&%%%%%$$$$$$$ooXX    ",
"     &&&&&&%%%%%%%%%$$ooX     ",
"      &&&&&&&&%%%%%%%$oo      ",
"       &&&&&&&&&&%%%%$o       ",
"         &&&&&&&&&%%$         ",
"           &&&&&&%%           ",
"              ..              "};
